<?xml version="1.0" encoding="UTF-8" standalone="no"?>
<!-- Created with Inkscape (http://www.inkscape.org/) -->

<svg
   width="128"
   height="128"
   viewBox="0 0 33.866666 33.866668"
   version="1.1"
   id="svg5"
   inkscape:version="1.2-dev (2933c477aa, 2021-06-11)"
   sodipodi:docname="human.svg"
   xmlns:inkscape="http://www.inkscape.org/namespaces/inkscape"
   xmlns:sodipodi="http://sodipodi.sourceforge.net/DTD/sodipodi-0.dtd"
   xmlns="http://www.w3.org/2000/svg"
   xmlns:svg="http://www.w3.org/2000/svg">
  <sodipodi:namedview
     id="namedview7"
     pagecolor="#a8a8a8"
     bordercolor="#666666"
     borderopacity="1.0"
     inkscape:pageshadow="2"
     inkscape:pageopacity="0"
     inkscape:pagecheckerboard="true"
     inkscape:document-units="mm"
     showgrid="false"
     units="px"
     width="128px"
     inkscape:zoom="5.8511223"
     inkscape:cx="67.508416"
     inkscape:cy="60.159399"
     inkscape:window-width="3840"
     inkscape:window-height="2100"
     inkscape:window-x="1920"
     inkscape:window-y="32"
     inkscape:window-maximized="1"
     inkscape:current-layer="layer1" />
  <defs
     id="defs2" />
  <g
     inkscape:label="Layer 1"
     inkscape:groupmode="layer"
     id="layer1">
    <circle
       style="fill:none;stroke:#000000;stroke-width:1.653;stroke-miterlimit:4;stroke-dasharray:none;stroke-opacity:1"
       id="path866"
       cx="17.163986"
       cy="16.498034"
       r="15.436295" />
    <path
       id="path1006"
       style="fill:none;stroke:#000000;stroke-width:6.24756"
       d="M 22.601562 102.53516 C 14.655953 104.63646 9.4082488 108.44694 8.6640625 112.71484 C 6.9362719 122.62372 19.739235 124.77942 36.822266 124.60938 C 50.410997 124.47412 58.238441 123.04678 62.162109 120.5957 A 58.341901 58.341901 0 0 1 22.601562 102.53516 z "
       transform="scale(0.26458333)" />
    <path
       id="path1006-3"
       style="fill:none;stroke:#000000;stroke-width:1.653"
       d="m 32.533346,29.700817 c 0.580832,1.891919 -0.926191,3.082339 -7.449877,3.147273 -4.519885,0.04499 -7.90702,-0.52555 -7.449876,-3.147273 0.29858,-1.712355 3.335423,-3.147274 7.449876,-3.147274 4.114454,0 6.93974,1.485628 7.449877,3.147274 z"
       sodipodi:nodetypes="sssss" />
    <path
       id="path4443"
       style="fill:#000000;fill-opacity:1;stroke:none;stroke-width:2.39172;stroke-miterlimit:4;stroke-dasharray:none;stroke-opacity:1"
       d="m 19.935275,9.0402422 c -2.438984,-4.01e-5 -4.06247,2.1738728 -4.283288,4.1499038 -0.0198,0.177215 0.758649,0.580933 0.80511,0.517522 0.880965,-1.202376 1.406745,-3.019035 3.361536,-3.019774 2.146036,2.15e-4 2.836602,1.21256 3.551936,2.718872 0.218788,0.460712 1.120808,-0.04492 1.119431,-0.398888 C 24.4822,11.00783 22.374259,9.0402021 19.935275,9.0402422 Z"
       sodipodi:nodetypes="csscssc" />
    <path
       style="fill:#5a8b18;stroke:none;stroke-width:0.264583px;stroke-linecap:butt;stroke-linejoin:miter;stroke-opacity:1;fill-opacity:1"
       d="M 4.7404639,20.118283 7.2919399,16.94648 15.856576,22.772366 30.348671,1.8512636 33.706154,3.6555526 17.657127,27.947667 Z"
       id="path2581" />
    <path
       id="ellipse3605"
       style="fill:#000000;fill-opacity:1;stroke:none;stroke-width:2.39172;stroke-miterlimit:4;stroke-dasharray:none;stroke-opacity:1"
       d="m 13.056107,9.0402422 c -2.438984,-4.01e-5 -4.0624694,2.1738728 -4.2832877,4.1499038 -0.019805,0.177215 0.7586494,0.580933 0.8051102,0.517522 0.8809645,-1.202376 1.4067445,-3.019035 3.3615355,-3.019774 2.146036,2.15e-4 2.836602,1.21256 3.551936,2.718872 0.218788,0.460712 1.120808,-0.04492 1.119431,-0.398888 -0.0078,-2.000048 -2.115741,-3.9676759 -4.554725,-3.9676358 z"
       sodipodi:nodetypes="csscssc" />
  </g>
</svg>
